<?xml version="1.0" ?><svg style="enable-background:new 0 0 32 32;" version="1.1" viewBox="0 0 32 32" xml:space="preserve" xmlns="http://www.w3.org/2000/svg" xmlns:xlink="http://www.w3.org/1999/xlink"><style type="text/css">
	.st0{fill:#FF2A68;}
</style><g id="Layer_1"><g id="XMLID_65_"/></g><g id="Layer_2"><g id="XMLID_501_"><path class="st0" d="M17,19.3L17,19.3c-1.7,0-3.1-1.4-3.1-3.1v-6C13.9,8.4,15.3,7,17,7h0c1.7,0,3.1,1.4,3.1,3.1v6    C20.1,17.9,18.7,19.3,17,19.3z"/></g><g id="XMLID_500_"><path class="st0" d="M13.9,12.5h-1c-0.7,0-1.4,0.6-1.4,1.4V16c0,2.9,2.4,5.3,5.5,5.3s5.5-2.4,5.5-5.3v-2.2c0-0.7-0.6-1.4-1.4-1.4    h-1"/></g><g id="XMLID_498_"><path class="st0" d="M18.1,21.3V26c0,0.6-0.4,1-1,1h-0.2c-0.6,0-1-0.4-1-1v-4.7"/></g><g id="XMLID_497_"><line class="st0" x1="17" x2="19" y1="10" y2="10"/></g><g id="XMLID_496_"><line class="st0" x1="17" x2="19" y1="12" y2="12"/></g><g id="XMLID_495_"><line class="st0" x1="17" x2="19" y1="14" y2="14"/></g><g id="XMLID_494_"><line class="st0" x1="13" x2="15" y1="10" y2="10"/></g><g id="XMLID_473_"><line class="st0" x1="13" x2="15" y1="12" y2="12"/></g><g id="XMLID_455_"><line class="st0" x1="13" x2="15" y1="14" y2="14"/></g><g id="XMLID_469_"><path d="M16,30.5C8,30.5,1.5,24,1.5,16S8,1.5,16,1.5S30.5,8,30.5,16S24,30.5,16,30.5z M16,2.5    C8.6,2.5,2.5,8.6,2.5,16c0,7.4,6.1,13.5,13.5,13.5c7.4,0,13.5-6.1,13.5-13.5C29.5,8.6,23.4,2.5,16,2.5z" id="XMLID_19_"/></g><g id="XMLID_470_"><path d="M16,18.8c-2,0-3.6-1.6-3.6-3.6v-6c0-2,1.6-3.6,3.6-3.6s3.6,1.6,3.6,3.6v6C19.6,17.1,18,18.8,16,18.8z     M16,6.5c-1.4,0-2.6,1.2-2.6,2.6v6c0,1.4,1.2,2.6,2.6,2.6s2.6-1.2,2.6-2.6v-6C18.6,7.7,17.4,6.5,16,6.5z" id="XMLID_16_"/></g><g id="XMLID_572_"><path d="M21.4,16.5C21.4,16.5,21.4,16.5,21.4,16.5c-0.4-0.1-0.5-0.3-0.5-0.6C21,15.6,21,15.3,21,15v-2.2    c0-0.5-0.4-0.9-0.9-0.9h-1c-0.3,0-0.5-0.2-0.5-0.5s0.2-0.5,0.5-0.5h1c1,0,1.9,0.8,1.9,1.9V15c0,0.4,0,0.7-0.1,1    C21.9,16.3,21.6,16.5,21.4,16.5z" id="XMLID_15_"/></g><g id="XMLID_472_"><path d="M17.1,20.8c-0.2,0-0.4-0.2-0.5-0.4c-0.1-0.3,0.1-0.5,0.4-0.6c1.4-0.3,2.6-1.1,3.3-2.3    c0.1-0.2,0.5-0.3,0.7-0.2c0.2,0.1,0.3,0.5,0.2,0.7C20.3,19.4,18.9,20.4,17.1,20.8C17.2,20.7,17.1,20.8,17.1,20.8z" id="XMLID_14_"/></g><g id="XMLID_570_"><path d="M14.9,20.7C14.8,20.7,14.8,20.7,14.9,20.7C12,20.2,10,17.8,10,15v-2.2c0-1,0.8-1.9,1.9-1.9h1    c0.3,0,0.5,0.2,0.5,0.5S13.2,12,12.9,12h-1c-0.5,0-0.9,0.4-0.9,0.9V15c0,2.3,1.6,4.2,4,4.7c0.3,0.1,0.4,0.3,0.4,0.6    C15.3,20.6,15.1,20.7,14.9,20.7z" id="XMLID_13_"/></g><g id="XMLID_471_"><path d="M16,18.8c-2,0-3.6-1.6-3.6-3.6v-6c0-2,1.6-3.6,3.6-3.6s3.6,1.6,3.6,3.6v6C19.6,17.1,18,18.8,16,18.8z     M16,6.5c-1.4,0-2.6,1.2-2.6,2.6v6c0,1.4,1.2,2.6,2.6,2.6s2.6-1.2,2.6-2.6v-6C18.6,7.7,17.4,6.5,16,6.5z" id="XMLID_10_"/></g><g id="XMLID_573_"><path d="M14.9,22.4c-0.3,0-0.5-0.2-0.5-0.5v-1.6c0-0.3,0.2-0.5,0.5-0.5s0.5,0.2,0.5,0.5v1.6    C15.4,22.2,15.2,22.4,14.9,22.4z" id="XMLID_9_"/></g><g id="XMLID_571_"><path d="M16.1,26.5h-0.2c-0.8,0-1.5-0.7-1.5-1.5v-1.5c0-0.3,0.2-0.5,0.5-0.5s0.5,0.2,0.5,0.5V25    c0,0.3,0.2,0.5,0.5,0.5h0.2c0.3,0,0.5-0.2,0.5-0.5v-4.7c0-0.3,0.2-0.5,0.5-0.5s0.5,0.2,0.5,0.5V25C17.6,25.8,16.9,26.5,16.1,26.5z    " id="XMLID_8_"/></g><g id="XMLID_475_"><path d="M19,10h-2c-0.3,0-0.5-0.2-0.5-0.5S16.7,9,17,9h2c0.3,0,0.5,0.2,0.5,0.5S19.3,10,19,10z" id="XMLID_7_"/></g><g id="XMLID_476_"><path d="M19,12h-2c-0.3,0-0.5-0.2-0.5-0.5S16.7,11,17,11h2c0.3,0,0.5,0.2,0.5,0.5S19.3,12,19,12z" id="XMLID_6_"/></g><g id="XMLID_477_"><path d="M19,14h-2c-0.3,0-0.5-0.2-0.5-0.5S16.7,13,17,13h2c0.3,0,0.5,0.2,0.5,0.5S19.3,14,19,14z" id="XMLID_5_"/></g><g id="XMLID_480_"><path d="M15,10h-2c-0.3,0-0.5-0.2-0.5-0.5S12.7,9,13,9h2c0.3,0,0.5,0.2,0.5,0.5S15.3,10,15,10z" id="XMLID_4_"/></g><g id="XMLID_479_"><path d="M15,12h-2c-0.3,0-0.5-0.2-0.5-0.5S12.7,11,13,11h2c0.3,0,0.5,0.2,0.5,0.5S15.3,12,15,12z" id="XMLID_3_"/></g><g id="XMLID_478_"><path d="M15,14h-2c-0.3,0-0.5-0.2-0.5-0.5S12.7,13,13,13h2c0.3,0,0.5,0.2,0.5,0.5S15.3,14,15,14z" id="XMLID_2_"/></g></g></svg>