<?xml version="1.0" ?><svg style="enable-background:new 0 0 32 32;" version="1.1" viewBox="0 0 32 32" xml:space="preserve" xmlns="http://www.w3.org/2000/svg" xmlns:xlink="http://www.w3.org/1999/xlink"><style type="text/css">
	.st0{fill:#FF2A68;}
</style><g id="Layer_1"><g id="XMLID_65_"/></g><g id="Layer_2"><g id="XMLID_557_"><circle class="st0" cx="11.5" cy="22.1" r="2.8"/></g><g id="XMLID_556_"><circle class="st0" cx="22.2" cy="18.8" r="2.8"/></g><g id="XMLID_555_"><path class="st0" d="M24.5,10.7l-10.3,5.9v-2.6c0-0.5,0.3-1,0.8-1.3L23.2,8c0.6-0.3,1.3,0.1,1.3,0.7V10.7z"/></g><g id="XMLID_55_"><path d="M16,30.5C8,30.5,1.5,24,1.5,16S8,1.5,16,1.5S30.5,8,30.5,16S24,30.5,16,30.5z M16,2.5    C8.6,2.5,2.5,8.6,2.5,16c0,7.4,6.1,13.5,13.5,13.5c7.4,0,13.5-6.1,13.5-13.5C29.5,8.6,23.4,2.5,16,2.5z" id="XMLID_12_"/></g><g id="XMLID_54_"><path d="M10.5,24.3c-1.8,0-3.3-1.5-3.3-3.3s1.5-3.3,3.3-3.3c1.8,0,3.3,1.5,3.3,3.3S12.3,24.3,10.5,24.3z M10.5,18.8    c-1.2,0-2.3,1-2.3,2.3c0,1.2,1,2.3,2.3,2.3c1.2,0,2.3-1,2.3-2.3C12.7,19.8,11.7,18.8,10.5,18.8z" id="XMLID_9_"/></g><g id="XMLID_57_"><path d="M21.2,21c-1.8,0-3.3-1.5-3.3-3.3s1.5-3.3,3.3-3.3s3.3,1.5,3.3,3.3S23,21,21.2,21z M21.2,15.5    c-1.2,0-2.3,1-2.3,2.3c0,1.2,1,2.3,2.3,2.3c1.2,0,2.3-1,2.3-2.3C23.5,16.5,22.5,15.5,21.2,15.5z" id="XMLID_6_"/></g><g id="XMLID_58_"><path d="M12.7,20.9c0-0.2,0-4.8,0-7.6l1,0c0,2.9,0,7.2,0,7.5L12.7,20.9z" id="XMLID_5_"/></g><g id="XMLID_59_"><rect height="7.9" id="XMLID_4_" width="1" x="23" y="8.1"/></g><g id="XMLID_97_"><path d="M13.2,16.1c-0.1,0-0.2,0-0.3-0.1c-0.2-0.1-0.3-0.3-0.3-0.4v-2.6c0-0.7,0.4-1.4,1-1.7l3.4-2    c0.2-0.1,0.5-0.1,0.7,0.2c0.1,0.2,0.1,0.5-0.2,0.7l-3.4,2c-0.3,0.2-0.5,0.5-0.5,0.9v1.7L23,9.4V7.7c0-0.2-0.1-0.3-0.2-0.3    c-0.1,0-0.2-0.1-0.3,0L19.7,9c-0.2,0.1-0.5,0.1-0.7-0.2c-0.1-0.2-0.1-0.5,0.2-0.7L22,6.5c0.4-0.2,0.9-0.2,1.3,0    C23.7,6.8,24,7.2,24,7.7v2c0,0.2-0.1,0.3-0.3,0.4l-10.3,5.9C13.4,16.1,13.3,16.1,13.2,16.1z" id="XMLID_3_"/></g><g id="XMLID_98_"><path d="M18.4,9.8c-0.2,0-0.4-0.1-0.4-0.3c-0.1-0.2,0-0.5,0.2-0.7l0.2-0.1c0.2-0.1,0.5,0,0.7,0.2    c0.1,0.2,0,0.5-0.2,0.7l-0.2,0.1C18.5,9.8,18.4,9.8,18.4,9.8z" id="XMLID_2_"/></g></g></svg>